PathFileType	4	(X/Y/Z)	 s01c0001.trc
DataRate	CameraRate	NumFrames	NumMarkers	Units	OrigDataRate	OrigDataStartFrame	OrigNumFrames
200	200	4	49	mm	200	251	2000
Frame#	Time	racr			lacr			c7			jug			rlel			rdr			llel			ldr			s2			lic			ric			lasi			rasi			rpsi			lpsi			rgt			lgt			rth1			rth2			rth3			rth4			rlfc			rmfc			rsh1			rsh2			rsh3			rsh4			rlmal			rmmal			rcal			rtoe			rmt5			rmt1			lth1			lth2			lth4			lth3			llfc			lmfc			lsh1			lsh2			lsh3			lsh4			llmal			lmmal			lcal			ltoe			lmt1			lmt5			
		X1	Y1	Z1	X2	Y2	Z2	X3	Y3	Z3	X4	Y4	Z4	X5	Y5	Z5	X6	Y6	Z6	X7	Y7	Z7	X8	Y8	Z8	X9	Y9	Z9	X10	Y10	Z10	X11	Y11	Z11	X12	Y12	Z12	X13	Y13	Z13	X14	Y14	Z14	X15	Y15	Z15	X16	Y16	Z16	X17	Y17	Z17	X18	Y18	Z18	X19	Y19	Z19	X20	Y20	Z20	X21	Y21	Z21	X22	Y22	Z22	X23	Y23	Z23	X24	Y24	Z24	X25	Y25	Z25	X26	Y26	Z26	X27	Y27	Z27	X28	Y28	Z28	X29	Y29	Z29	X30	Y30	Z30	X31	Y31	Z31	X32	Y32	Z32	X33	Y33	Z33	X34	Y34	Z34	X35	Y35	Z35	X36	Y36	Z36	X37	Y37	Z37	X38	Y38	Z38	X39	Y39	Z39	X40	Y40	Z40	X41	Y41	Z41	X42	Y42	Z42	X43	Y43	Z43	X44	Y44	Z44	X45	Y45	Z45	X46	Y46	Z46	X47	Y47	Z47	X48	Y48	Z48	X49	Y49	Z49	
251	1.2550	488.905219	1502.903364	-347.053208	300.321491	1480.593545	-687.262043	370.400644	1530.274944	-498.259760	503.701801	1460.244295	-563.399075	552.178825	1256.890468	-181.584316	714.063807	1063.694378	-70.073036	204.637445	1207.588818	-781.783204	210.461226	1001.619779	-951.453070	337.065399	1019.824991	-457.437363	363.894845	1089.037821	-675.059276	541.246098	1062.503692	-390.814000	416.507952	1025.894522	-677.458233	569.833306	1015.127517	-443.192878	379.575574	1050.515064	-419.818054	323.635837	1053.704991	-509.704707	512.976501	928.341457	-358.324972	333.498662	922.569707	-680.259113	534.725906	809.006687	-348.405487	540.663485	726.959643	-358.222802	534.480747	637.359593	-373.594938	578.629221	730.861427	-397.715230	504.600244	517.117870	-386.601205	444.360171	492.934612	-475.405291	490.496201	401.490000	-338.015658	485.283080	317.361199	-343.273256	469.581490	229.008584	-352.300344	510.118827	317.005391	-399.705273	447.294534	98.905116	-371.234192	447.509318	122.386743	-459.204183	393.804743	67.874620	-415.798836	651.924108	91.778423	-492.185585	581.400900	50.562318	-391.127246	561.303253	62.385254	-504.445321	318.194393	803.204481	-686.778400	338.150961	717.025976	-687.370128	387.942536	727.342645	-706.953207	354.347888	633.952380	-675.137724	362.679470	520.285009	-652.405147	390.812437	489.297982	-545.548425	304.687085	409.643079	-665.121708	303.253802	322.955005	-656.484884	304.392241	237.976634	-638.836712	365.982465	322.556834	-654.217603	317.355128	104.732772	-620.088307	382.680202	116.273779	-558.583027	304.865372	64.515569	-560.201901	543.333704	97.117098	-692.418029	498.198889	65.808873	-617.355737	426.181431	57.417952	-707.029909	
252	1.2600	488.985717	1502.905335	-347.073095	300.365347	1480.607725	-687.246769	370.453948	1530.259117	-498.234591	503.785731	1460.236491	-563.429297	552.276950	1256.912975	-181.591436	714.126053	1063.695433	-70.078567	204.705612	1207.581347	-781.767105	210.503011	1001.600036	-951.434890	337.128596	1019.830115	-457.438877	363.944649	1089.039133	-675.071120	541.309253	1062.506107	-390.830382	416.540285	1025.891875	-677.476434	569.876923	1015.121230	-443.204243	379.621830	1050.515739	-419.821884	323.685070	1053.714244	-509.704708	513.054311	928.350699	-358.342344	333.542845	922.568668	-680.267667	534.797782	809.007159	-348.440335	540.715860	726.944423	-358.249926	534.504802	637.358991	-373.609431	578.665153	730.839001	-397.734119	504.644986	517.106653	-386.610223	444.390166	492.927916	-475.411459	490.522511	401.471263	-338.034102	485.321101	317.382865	-343.304745	469.584665	229.003055	-352.306572	510.151147	317.009877	-399.715749	447.281595	98.909073	-371.258150	447.509677	122.384492	-459.205099	393.797027	67.882397	-415.791785	651.924084	91.778529	-492.184941	581.402931	50.562882	-391.126645	561.299793	62.378878	-504.442710	318.223491	803.212784	-686.775787	338.185479	717.036170	-687.375390	387.976298	727.337301	-706.948784	354.368465	633.951991	-675.137465	362.710855	520.278846	-652.408336	390.830859	489.283856	-545.546606	304.695300	409.646948	-665.120969	303.250435	322.952922	-656.479947	304.396142	237.983757	-638.836095	365.992484	322.561282	-654.219839	317.363314	104.728095	-620.079840	382.658628	116.263754	-558.559871	304.840753	64.510027	-560.210094	543.341245	97.109938	-692.418004	498.214491	65.811005	-617.348185	426.187941	57.424794	-707.017693	
253	1.2650	489.065678	1502.900108	-347.088399	300.453861	1480.598446	-687.251308	370.539943	1530.279633	-498.210871	503.838564	1460.237685	-563.420984	552.356140	1256.902234	-181.608729	714.192962	1063.695658	-70.103136	204.807545	1207.517860	-781.837505	210.566533	1001.588018	-951.416049	337.175261	1019.823190	-457.445036	363.990068	1089.042712	-675.084254	541.377816	1062.478639	-390.836087	416.592998	1025.887633	-677.486218	569.954987	1015.130971	-443.203118	379.695562	1050.503811	-419.828963	323.726202	1053.721773	-509.698475	513.113044	928.344223	-358.344770	333.567406	922.578111	-680.257410	534.835766	809.009423	-348.452873	540.777056	726.946432	-358.263525	534.543760	637.352765	-373.621496	578.714718	730.833501	-397.750464	504.678564	517.121753	-386.609268	444.430919	492.943748	-475.433156	490.548336	401.472566	-338.034669	485.319868	317.364471	-343.296080	469.592957	229.006302	-352.309895	510.171764	317.015972	-399.724854	447.293452	98.904696	-371.246890	447.508134	122.380971	-459.204845	393.806470	67.865218	-415.795843	651.925521	91.773873	-492.187336	581.399268	50.564381	-391.139621	561.297945	62.375098	-504.441241	318.252987	803.217511	-686.771821	338.208154	717.036280	-687.363237	388.004526	727.336005	-706.944444	354.386840	633.953677	-675.135277	362.742069	520.277779	-652.400767	390.859069	489.291763	-545.547753	304.712632	409.659888	-665.115599	303.268167	322.962073	-656.485583	304.399785	237.988658	-638.833179	366.005254	322.565804	-654.220308	317.366515	104.725055	-620.076401	382.675256	116.267766	-558.566481	304.868071	64.502897	-560.197601	543.341120	97.110748	-692.416671	498.214707	65.810922	-617.348097	426.173799	57.421796	-707.027220	
254	1.2700	489.145144	1502.889037	-347.100723	300.511358	1480.608456	-687.260790	370.602198	1530.278139	-498.229532	503.885597	1460.241049	-563.443695	552.430707	1256.915197	-181.605829	714.266009	1063.692914	-70.095085	204.869516	1207.521834	-781.820705	210.615685	1001.566046	-951.392007	337.244981	1019.809804	-457.437759	364.040634	1089.045123	-675.090760	541.429686	1062.477832	-390.848832	416.634618	1025.886129	-677.500810	570.009758	1015.108263	-443.231378	379.758231	1050.510339	-419.838098	323.780711	1053.736163	-509.706753	513.165705	928.335401	-358.371290	333.609089	922.585225	-680.266596	534.875408	809.026734	-348.453171	540.834077	726.951732	-358.291465	534.616064	637.346364	-373.654780	578.756569	730.848914	-397.767942	504.705459	517.097641	-386.627487	444.457396	492.945066	-475.437923	490.586413	401.472248	-338.044973	485.362884	317.389202	-343.309133	469.619888	228.999331	-352.329527	510.191171	317.003549	-399.730648	447.281243	98.916819	-371.235988	447.509327	122.382321	-459.204462	393.816138	67.862349	-415.800253	651.923927	91.774656	-492.193266	581.414376	50.551719	-391.131210	561.301282	62.373186	-504.443536	318.283274	803.220333	-686.768794	338.229737	717.042947	-687.370838	388.036498	727.331236	-706.942839	354.411547	633.951701	-675.130978	362.766321	520.281468	-652.408096	390.882915	489.297308	-545.548172	304.734720	409.662838	-665.105665	303.281121	322.960648	-656.474113	304.401753	237.997973	-638.830287	366.021504	322.569903	-654.217774	317.356982	104.720255	-620.072287	382.669984	116.277956	-558.553957	304.859500	64.518374	-560.209285	543.329849	97.100593	-692.408334	498.214830	65.811070	-617.350222	426.180454	57.427519	-707.026438	
